<?xml version="1.0" standalone="no"?>
<!DOCTYPE svg PUBLIC "-//W3C//DTD SVG 20010904//EN"
 "http://www.w3.org/TR/2001/REC-SVG-20010904/DTD/svg10.dtd">
<svg version="1.0" xmlns="http://www.w3.org/2000/svg"
 width="256.000000pt" height="256.000000pt" viewBox="0 0 256.000000 256.000000"
 preserveAspectRatio="xMidYMid meet">

<g transform="translate(0.000000,256.000000) scale(0.100000,-0.100000)"
fill="#000000" stroke="none">
<path d="M1165 2554 c-147 -20 -340 -70 -372 -96 -18 -15 -16 -47 3 -55 9 -3
50 6 92 21 514 176 1072 -17 1372 -477 51 -77 69 -97 85 -95 51 7 20 79 -101
234 -177 228 -439 388 -734 449 -73 15 -287 27 -345 19z"/>
<path d="M490 2274 c-45 -41 -49 -58 -20 -74 17 -9 27 -6 61 20 43 35 59 58
52 78 -9 23 -53 12 -93 -24z"/>
<path d="M1304 2240 c-12 -5 -31 -25 -44 -44 -18 -31 -25 -67 -40 -234 -10
-108 -22 -245 -26 -304 -4 -60 -10 -108 -14 -108 -4 0 -15 39 -24 88 -70 351
-84 404 -123 454 -58 77 -168 79 -208 4 -21 -38 -19 -66 23 -346 16 -113 33
-232 37 -265 l6 -60 -18 31 c-10 17 -64 113 -121 212 -69 122 -115 191 -140
212 -91 75 -192 34 -192 -78 0 -64 28 -139 121 -327 90 -181 104 -208 148
-278 23 -37 23 -40 12 -150 -32 -330 17 -541 146 -626 86 -57 203 -64 203 -12
0 26 -18 37 -72 45 -68 10 -108 42 -146 117 -47 91 -60 220 -45 442 l11 162
-55 98 c-96 171 -193 373 -219 457 -17 54 -18 110 -3 110 15 0 70 -59 89 -96
23 -45 251 -437 262 -451 14 -17 95 -14 114 4 9 10 13 25 10 42 -3 14 -19 130
-36 256 -17 127 -35 257 -41 290 -6 33 -13 88 -16 123 -5 61 -5 62 21 62 34 0
61 -53 87 -173 37 -172 80 -382 90 -441 13 -75 33 -114 66 -127 36 -14 74 15
90 67 6 21 24 194 38 384 15 190 31 355 36 367 10 26 45 39 64 23 12 -10 15
-52 15 -229 0 -119 3 -294 7 -389 l6 -172 25 -7 c14 -3 32 -1 41 4 25 16 116
228 172 401 87 271 112 317 159 292 42 -23 38 -74 -25 -325 -23 -93 -52 -217
-64 -275 -12 -58 -33 -154 -46 -215 -56 -267 -61 -295 -45 -305 46 -29 114 3
188 89 167 193 213 229 297 238 52 5 125 -10 125 -27 0 -5 -30 -27 -67 -49
-121 -71 -214 -184 -307 -374 -69 -142 -141 -224 -288 -329 -101 -72 -117 -97
-79 -118 29 -15 31 -14 107 36 170 114 269 224 350 392 86 177 164 272 284
340 72 42 97 74 86 116 -22 89 -194 125 -320 67 -49 -23 -146 -112 -234 -216
l-43 -50 6 35 c18 107 87 419 140 640 24 96 46 198 50 226 8 64 -7 123 -39
153 -26 25 -96 38 -140 27 -59 -15 -105 -98 -160 -286 -24 -84 -71 -214 -84
-235 -4 -5 -9 120 -12 278 l-5 289 -33 29 c-27 24 -40 29 -85 28 -28 0 -62 -4
-73 -9z"/>
<path d="M274 2048 c-314 -427 -331 -1035 -41 -1473 74 -113 99 -139 125 -131
34 11 27 38 -32 117 -96 127 -173 303 -212 484 -21 98 -24 350 -5 444 38 191
108 359 209 500 49 68 59 88 51 103 -18 34 -47 21 -95 -44z"/>
<path d="M2372 1787 c-9 -11 -5 -37 22 -118 36 -111 55 -135 82 -107 16 15 15
21 -1 80 -34 125 -74 181 -103 145z"/>
<path d="M2466 1298 c-3 -7 -9 -65 -15 -128 -29 -302 -161 -578 -374 -778 -66
-62 -69 -66 -61 -86 17 -44 88 2 191 123 147 172 232 340 284 559 21 89 42
283 33 307 -7 18 -53 20 -58 3z"/>
<path d="M1472 938 c-6 -7 -19 -36 -30 -63 -13 -30 -26 -49 -34 -47 -7 2 -41
11 -74 20 -70 18 -94 9 -94 -34 0 -29 29 -49 93 -65 53 -13 52 -9 21 -92 -18
-47 -18 -47 3 -69 33 -33 64 -14 93 56 12 31 26 56 30 56 5 0 36 -9 71 -19 68
-22 93 -17 104 20 10 30 -18 54 -85 73 l-58 17 21 59 c17 46 19 64 11 77 -14
22 -57 29 -72 11z"/>
<path d="M426 394 c-9 -8 -16 -19 -16 -23 0 -4 22 -28 49 -55 51 -50 75 -56
95 -23 9 16 4 25 -34 59 -62 55 -75 61 -94 42z"/>
<path d="M636 237 c-32 -23 -14 -49 59 -89 144 -78 321 -128 501 -143 78 -6
92 -5 104 10 10 12 11 21 3 33 -7 13 -38 20 -124 28 -179 18 -326 62 -465 140
-52 29 -63 32 -78 21z"/>
</g>
</svg>
